<svg xmlns="http://www.w3.org/2000/svg" width="544.219" height="617.016" viewBox="0 0 544.219 617.016">
  <g id="gummy-location" transform="translate(-163.467 -144.914)">
    <path id="Path_317" data-name="Path 317" d="M690.7,647.281,575.46,730.631a42.461,42.461,0,0,1-40.012,5.806L409.13,689.866c-13.516-4.983-28.265-2.8-40.232,5.966l-92.48,67.709c-10.084,7.308-23.424,3.856-29.794-7.71a26.743,26.743,0,0,1-2.511-6.435L164.3,428.459c-2.628-10.57,1.131-21.863,9.231-27.735L289.993,316.3c13.071-9.475,29.133-11.815,43.854-6.388L456.134,355c14.776,5.448,30.9,3.07,43.993-6.487L587.7,284.591c10.064-7.344,23.414-3.941,29.817,7.6a26.689,26.689,0,0,1,2.548,6.5l79.8,320.892C702.492,630.13,698.76,641.395,690.7,647.281Z" transform="translate(0 -5.444)" fill="#cccdcf" opacity="0.4"/>
    <path id="Path_318" data-name="Path 318" d="M696.072,611.8l-98.4,71.822c-13.094,9.557-29.218,11.935-43.993,6.487L431.381,645.022c-14.721-5.426-30.783-3.087-43.855,6.387L281.79,728.058c-10.084,7.308-23.424,3.856-29.794-7.71a26.747,26.747,0,0,1-2.511-6.435L169.669,392.976c-2.629-10.57,1.13-21.862,9.23-27.735l116.46-84.427c13.072-9.474,29.133-11.814,43.855-6.387l122.294,45.086c14.776,5.447,30.9,3.07,43.993-6.488l87.574-63.919c10.064-7.344,23.414-3.941,29.817,7.6a26.689,26.689,0,0,1,2.548,6.5l79.8,320.891C707.867,594.643,704.137,605.911,696.072,611.8Z" transform="translate(-0.876 -4.022)" fill="#fff"/>
    <path id="Path_319" data-name="Path 319" d="M429.106,619.119l-18.3-59.213-86.47,33.953L297.3,504l-70.428,16.077,49.378,198.542a3.735,3.735,0,0,0,3.5,3.011,3.137,3.137,0,0,0,1.884-.654l100.526-72.87C381.726,647.525,429.106,619.119,429.106,619.119Z" transform="translate(-10.34 -14.396)" fill="#eaf4f7"/>
    <path id="Path_320" data-name="Path 320" d="M269.8,734.674a21.493,21.493,0,0,1-8.641-1.844c-7.115-3.075-12.531-9.85-14.585-18.247L166.762,393.646c-2.887-11.8,1.3-24.37,10.3-30.959l116.466-84.423c13.695-9.952,30.538-12.406,45.966-6.7l122.294,45.086c14.064,5.208,29.419,2.943,41.877-6.175l87.574-63.919c11.232-8.2,26.133-4.4,33.282,8.481a29.766,29.766,0,0,1,2.845,7.262l79.8,320.892c2.875,11.765-1.28,24.3-10.241,30.909l-98.4,71.826c-13.716,10.041-30.625,12.534-46.109,6.8L430.126,647.644c-14.012-5.187-29.31-2.959-41.746,6.08L282.643,730.372A21.79,21.79,0,0,1,269.8,734.674Zm52.928-460.369a45.035,45.035,0,0,0-26.514,8.826L179.747,367.555c-7.131,5.216-10.443,15.171-8.157,24.51L251.406,713c2.892,11.626,13.453,18.364,23.59,15.048a17.972,17.972,0,0,0,4.962-2.547L385.7,648.855c13.694-9.952,30.537-12.406,45.965-6.7l122.295,45.086c14.064,5.208,29.42,2.944,41.877-6.176l98.406-71.822,1.348,2.43-1.348-2.43c7.1-5.23,10.387-15.162,8.108-24.478L622.54,263.883c-2.891-11.627-13.452-18.365-23.589-15.049a17.988,17.988,0,0,0-5.012,2.583l-87.574,63.921c-13.716,10.041-30.625,12.534-46.109,6.8L337.964,277.051A43.965,43.965,0,0,0,322.732,274.306Z" transform="translate(-0.39 -3.901)" fill="#363a5a"/>
    <path id="Path_321" data-name="Path 321" d="M359.739,587.361a1.81,1.81,0,0,1-1.672-1.922,1.894,1.894,0,0,1,1.254-1.856c.015,0,1.506-.452,3.979-1.281a1.654,1.654,0,0,1,2.077,1.3,1.975,1.975,0,0,1-1.137,2.382c-2.522.845-4.012,1.291-4.075,1.31A1.525,1.525,0,0,1,359.739,587.361Z" transform="translate(-31.736 -17.531)" fill="#363a5a"/>
    <path id="Path_322" data-name="Path 322" d="M377.32,574.046a1.81,1.81,0,0,1-1.674-1.92,1.922,1.922,0,0,1,1.124-1.813c2.736-1.091,5.408-2.22,7.941-3.36a1.615,1.615,0,0,1,2.168,1.09,2.02,2.02,0,0,1-.951,2.487c-2.572,1.152-5.283,2.3-8.059,3.4A1.474,1.474,0,0,1,377.32,574.046Zm19.738-9.189a1.811,1.811,0,0,1-1.669-1.926,1.959,1.959,0,0,1,.944-1.722c2.678-1.475,5.181-2.976,7.434-4.472a1.564,1.564,0,0,1,2.287.7,2.081,2.081,0,0,1-.613,2.623c-2.327,1.536-4.9,3.09-7.66,4.608A1.5,1.5,0,0,1,397.058,564.857ZM415,551.836a1.81,1.81,0,0,1-1.673-1.921,2.058,2.058,0,0,1,.537-1.408,24.341,24.341,0,0,0,4.854-7.064,1.581,1.581,0,0,1,2.245-.863,2.056,2.056,0,0,1,.768,2.536,28.13,28.13,0,0,1-5.595,8.21,1.557,1.557,0,0,1-1.136.513ZM535.969,533.66h-.186a1.938,1.938,0,0,1,0-3.84h.208c.7,0,1.446-.017,2.206-.053a13.22,13.22,0,0,0,5.273-1.135,1.6,1.6,0,0,1,2.209.976,2.04,2.04,0,0,1-.85,2.533,15.864,15.864,0,0,1-6.5,1.461Q537.126,533.659,535.969,533.66ZM523.3,531.471a1.462,1.462,0,0,1-.545-.106,28.266,28.266,0,0,1-7.894-4.716,2.1,2.1,0,0,1-.414-2.673,1.543,1.543,0,0,1,2.331-.475c.023.018.046.037.069.058a25.065,25.065,0,0,0,7,4.176,2,2,0,0,1,1.044,2.436,1.711,1.711,0,0,1-1.589,1.3ZM419.275,530.25a1.671,1.671,0,0,1-1.506-1.09c-.987-2.357-2.312-5.1-4.055-8.393a2.089,2.089,0,0,1,.562-2.638,1.558,1.558,0,0,1,2.3.645h0c1.8,3.4,3.18,6.254,4.211,8.726a2.052,2.052,0,0,1-.785,2.561,1.5,1.5,0,0,1-.721.189h-.005Zm128.886-10.7a1.788,1.788,0,0,1-1.667-1.773c-.067-1.007-.153-2.056-.241-3.144-.172-2.112-.351-4.3-.444-6.653a1.838,1.838,0,0,1,1.6-2.007,1.784,1.784,0,0,1,1.75,1.832c.09,2.263.264,4.4.432,6.471.09,1.11.177,2.18.246,3.206a1.856,1.856,0,0,1-1.54,2.062h0c-.054,0-.1,0-.14,0ZM507.5,516.19a1.642,1.642,0,0,1-1.434-.925,72,72,0,0,1-3.919-8.963,2.032,2.032,0,0,1,.9-2.513,1.6,1.6,0,0,1,2.19,1.03,67.876,67.876,0,0,0,3.688,8.465,2.087,2.087,0,0,1-.565,2.637,1.514,1.514,0,0,1-.865.277Zm-99.3-6.838a1.626,1.626,0,0,1-1.391-.849c-1.527-2.607-3.133-5.308-4.786-8.078a2.1,2.1,0,0,1,.434-2.67,1.545,1.545,0,0,1,2.327.5c1.66,2.784,3.272,5.492,4.8,8.107a2.1,2.1,0,0,1-.455,2.665,1.525,1.525,0,0,1-.932.326Zm140.457-14.068a1.808,1.808,0,0,1-1.675-1.919,2.208,2.208,0,0,1,.057-.5,44.236,44.236,0,0,1,3.38-9.451,1.565,1.565,0,0,1,2.281-.728,2.077,2.077,0,0,1,.634,2.616h0a40.064,40.064,0,0,0-3.061,8.558,1.73,1.73,0,0,1-1.622,1.427Zm-49.184-1.645a1.72,1.72,0,0,1-1.6-1.358c-.725-2.714-1.432-5.493-2.149-8.314l-.278-1.092a1.976,1.976,0,0,1,1.137-2.382,1.654,1.654,0,0,1,2.076,1.305l.278,1.093c.713,2.8,1.416,5.568,2.136,8.266a1.983,1.983,0,0,1-1.111,2.4,1.474,1.474,0,0,1-.49.084Zm-103.3-4.49a1.624,1.624,0,0,1-1.386-.839c-1.59-2.688-3.195-5.4-4.779-8.128a2.1,2.1,0,0,1,.465-2.663,1.547,1.547,0,0,1,2.322.534q2.366,4.075,4.76,8.095a2.1,2.1,0,0,1-.441,2.668,1.524,1.524,0,0,1-.941.333ZM559.825,474.9a1.809,1.809,0,0,1-1.675-1.918,2.061,2.061,0,0,1,.527-1.4,67.045,67.045,0,0,1,6.769-6.322,1.541,1.541,0,0,1,2.334.45,2.106,2.106,0,0,1-.393,2.677h0a63.378,63.378,0,0,0-6.416,5.991,1.566,1.566,0,0,1-1.154.527ZM493.3,470.233a1.71,1.71,0,0,1-1.59-1.313c-.963-3.313-1.9-6.283-2.88-9.081a2.033,2.033,0,0,1,.883-2.519,1.6,1.6,0,0,1,2.2,1.013c.01.027.019.054.028.082,1,2.868,1.965,5.908,2.948,9.293a2,2,0,0,1-1.06,2.429,1.47,1.47,0,0,1-.531.1h.005Zm-108.849-1.514a1.638,1.638,0,0,1-1.423-.9c-1.608-2.952-3.1-5.787-4.436-8.427a2.082,2.082,0,0,1,.607-2.624,1.562,1.562,0,0,1,2.288.7c1.319,2.6,2.793,5.4,4.381,8.321a2.091,2.091,0,0,1-.532,2.646A1.519,1.519,0,0,1,384.454,468.719Zm192.878-7.547a1.807,1.807,0,0,1-1.676-1.917,1.972,1.972,0,0,1,.9-1.707c2.433-1.45,5.05-2.88,7.778-4.26a1.6,1.6,0,0,1,2.2,1.005,2.039,2.039,0,0,1-.853,2.51c-2.661,1.344-5.212,2.739-7.581,4.152a1.508,1.508,0,0,1-.777.222Zm19.55-9.583a1.81,1.81,0,0,1-1.673-1.921,1.924,1.924,0,0,1,1.112-1.807q.69-.282,1.4-.562a7.866,7.866,0,0,0,4.1-4.425,1.583,1.583,0,0,1,2.238-.883,2.055,2.055,0,0,1,.77,2.567c-.012.027-.023.054-.036.08a11.371,11.371,0,0,1-5.972,6.289q-.7.276-1.372.552a1.472,1.472,0,0,1-.571.116ZM484.909,447.83a1.651,1.651,0,0,1-1.456-.971,81.374,81.374,0,0,0-4.515-7.981,2.11,2.11,0,0,1,.349-2.686,1.539,1.539,0,0,1,2.342.4,85.42,85.42,0,0,1,4.729,8.371,2.078,2.078,0,0,1-.627,2.618,1.52,1.52,0,0,1-.827.252Zm-110.888-.43a1.671,1.671,0,0,1-1.512-1.094c-1.356-3.264-2.492-6.352-3.379-9.182a2.012,2.012,0,0,1,.988-2.468,1.622,1.622,0,0,1,2.152,1.133l.012.036c.849,2.711,1.943,5.682,3.251,8.831a2.052,2.052,0,0,1-.791,2.559h0a1.479,1.479,0,0,1-.726.19Zm231.714-15.984H605.7a1.822,1.822,0,0,1-1.64-1.958h0q.014-.731.013-1.474c0-2.473-.11-5.191-.329-8.08a1.848,1.848,0,0,1,1.562-2.039,1.758,1.758,0,0,1,1.772,1.707c.228,3,.342,5.829.342,8.412q0,.783-.013,1.553A1.8,1.8,0,0,1,605.735,431.417ZM471.7,428.893a1.554,1.554,0,0,1-1.109-.48,60.377,60.377,0,0,0-6.534-5.746,2.1,2.1,0,0,1-.473-2.661,1.549,1.549,0,0,1,2.32-.542h0a64.1,64.1,0,0,1,6.907,6.075,2.122,2.122,0,0,1,.148,2.71,1.587,1.587,0,0,1-1.26.65ZM368.24,424.107h-.056a1.829,1.829,0,0,1-1.619-1.98h0a17.346,17.346,0,0,1,3.2-10.216,1.531,1.531,0,0,1,2.357-.253,2.119,2.119,0,0,1,.22,2.7c-.018.025-.037.049-.055.073a13.144,13.144,0,0,0-2.372,7.817,1.8,1.8,0,0,1-1.67,1.857Zm85.524-7.932a1.485,1.485,0,0,1-.644-.148,72.415,72.415,0,0,0-7.819-3.179,1.978,1.978,0,0,1-1.127-2.388,1.651,1.651,0,0,1,2.082-1.292,75.683,75.683,0,0,1,8.152,3.316,2.03,2.03,0,0,1,.9,2.511A1.687,1.687,0,0,1,453.764,416.175ZM433.386,409.7a1.457,1.457,0,0,1-.273-.026c-2.664-.5-5.458-.915-8.306-1.228a1.867,1.867,0,0,1-1.506-2.095,1.753,1.753,0,0,1,1.826-1.727c2.921.322,5.791.746,8.527,1.261a1.907,1.907,0,0,1,1.383,2.2A1.762,1.762,0,0,1,433.386,409.7Zm-50.87-.146a1.81,1.81,0,0,1-1.67-1.924,1.845,1.845,0,0,1,1.483-1.9c2.882-.377,5.75-.7,8.525-.97a1.761,1.761,0,0,1,1.808,1.754,1.86,1.86,0,0,1-1.528,2.073c-2.741.263-5.576.585-8.424.96a1.426,1.426,0,0,1-.193.011Zm21.228-1.8a1.938,1.938,0,0,1-.048-3.84c2.915-.1,5.812-.125,8.588-.077a1.938,1.938,0,0,1-.05,3.84c-2.726-.047-5.573-.021-8.439.076Zm199.932-.609a1.756,1.756,0,0,1-1.646-1.581c-.474-3.029-1.036-6.227-1.67-9.5a1.91,1.91,0,0,1,1.369-2.215,1.684,1.684,0,0,1,1.895,1.383c.644,3.326,1.215,6.575,1.7,9.656a1.916,1.916,0,0,1-1.352,2.229h0a1.513,1.513,0,0,1-.294.033Z" transform="translate(-33.121 -9.978)" fill="#363a5a"/>
    <path id="Path_323" data-name="Path 323" d="M643.423,381.873a1.727,1.727,0,0,1-1.611-1.4c-.691-2.831-1.153-4.535-1.157-4.552a2,2,0,0,1,1.056-2.43,1.636,1.636,0,0,1,2.118,1.211c.007.025.014.05.021.076.02.071.48,1.769,1.185,4.659a1.97,1.97,0,0,1-1.16,2.367A1.482,1.482,0,0,1,643.423,381.873Z" transform="translate(-77.806 -9.159)" fill="#363a5a"/>
    <ellipse id="Ellipse_82" data-name="Ellipse 82" cx="40.333" cy="46.26" rx="40.333" ry="46.26" transform="translate(282.27 524.148)" fill="#5a3116" opacity="0.22"/>
    <ellipse id="Ellipse_83" data-name="Ellipse 83" cx="23.389" cy="26.826" rx="23.389" ry="26.826" transform="translate(299.214 543.582)" fill="#80604b"/>
    <path id="Path_324" data-name="Path 324" d="M350,560.232c-7.268,0-14.122,3.871-18.544,10.486,10.682-8.327,25.226-5.146,32.487,7.105a30.055,30.055,0,0,1-.8,31.425c10.685-8.325,13.464-25.009,6.2-37.264-4.353-7.35-11.6-11.751-19.345-11.752Z" transform="translate(-27.396 -16.65)" fill="#fddcbf"/>
    <path id="Path_325" data-name="Path 325" d="M348.564,616.642c-14.3,0-25.9-13.3-25.9-29.706s11.6-29.705,25.9-29.7,25.9,13.3,25.9,29.706C374.449,603.336,362.862,616.625,348.564,616.642Zm0-53.65c-11.53,0-20.878,10.722-20.877,23.947s9.348,23.946,20.879,23.945,20.877-10.721,20.877-23.946S360.09,563.006,348.564,562.991Z" transform="translate(-25.962 -16.529)" fill="#363a5a"/>
    <path id="Path_326" data-name="Path 326" d="M337.644,337.155l67.082,14.584L389.32,320.684,333.8,298.467a22.88,22.88,0,0,0-19.789,1.3l-122,84.993a4.458,4.458,0,0,0-1.539,4.623l19.674,79.108,53.637-15.212-9.851-45.319Z" transform="translate(-4.383 -6.089)" fill="#99806f" stroke="#5a3116" stroke-linecap="round" stroke-linejoin="round" stroke-width="4"/>
    <path id="Path_327" data-name="Path 327" d="M493.37,542.929l38.28,11.054,18.507,48.649-41.237-7.753Z" transform="translate(-53.801 -15.956)" fill="#fddcbf" stroke="#ecb072" stroke-linecap="round" stroke-linejoin="round" stroke-width="4"/>
    <path id="Path_328" data-name="Path 328" d="M632.454,389.18c-31.1,0-56.306-10.344-56.306-23.1s25.209-23.105,56.306-23.105,56.306,10.345,56.306,23.105S663.551,389.18,632.454,389.18Z" transform="translate(-67.301 -7.94)" fill="#eaf4f7"/>
    <path id="Path_329" data-name="Path 329" d="M657.406,526.021l70.24-35.069,27.748,96.96L641.656,662.048l-20.848-67.482,44.474-28.693Z" transform="translate(-74.584 -13.872)" fill="#fddcbf" stroke="#ecb072" stroke-linecap="round" stroke-linejoin="round" stroke-width="4"/>
    <path id="Path_330" data-name="Path 330" d="M710.182,245.6c0-55.483-39.263-100.161-86.839-97.567-42.6,2.323-78.915,43.947-78.915,94.19,0,72.682,82.855,128.724,82.855,128.724S710.182,314.906,710.182,245.6Z" transform="translate(-62.128 -0.121)" fill="#ec8643"/>
    <path id="Path_331" data-name="Path 331" d="M657.543,344.02c-13.446,12.031-32.322,11.957-45.7-.18-24.522-22.27-59.988-62.7-59.988-110.255a101.537,101.537,0,0,1,16.578-55.838,100.677,100.677,0,0,0-24.01,65.674c0,72.682,82.855,128.724,82.855,128.724s33.79-22.846,58.225-57.4A252.419,252.419,0,0,1,657.543,344.02Z" transform="translate(-62.127 -1.316)" fill="#a25b2d"/>
    <path id="Path_332" data-name="Path 332" d="M630.582,148.035a75.255,75.255,0,0,0-41.762,16.053,72.837,72.837,0,0,1,31.162-9.1c47.576-2.592,86.84,42.083,86.84,97.567,0,54.341-50.963,100.526-72.973,117.938.431.3.669.465.669.465s82.9-56.045,82.9-125.35C717.422,190.119,678.159,145.441,630.582,148.035Z" transform="translate(-69.367 -0.121)" fill="#fb9757"/>
    <path id="Path_333" data-name="Path 333" d="M636.779,285.337c-18.838,0-34.109-17.515-34.11-39.121s15.27-39.122,34.109-39.123,34.109,17.515,34.11,39.121h0C670.888,267.822,655.618,285.336,636.779,285.337Z" transform="translate(-71.626 -2.493)" fill="#fff"/>
    <path id="Path_334" data-name="Path 334" d="M636.29,288.1c-20.225,0-36.62-18.8-36.621-42s16.394-42,36.619-42,36.62,18.8,36.621,42h0C672.887,269.281,656.505,288.07,636.29,288.1Zm0-78.243c-17.451,0-31.6,16.225-31.6,36.241s14.146,36.242,31.6,36.243,31.6-16.225,31.6-36.241v0c-.021-20.005-14.156-36.217-31.6-36.241Z" transform="translate(-71.136 -2.372)" fill="#363a5a"/>
    <path id="Path_335" data-name="Path 335" d="M626.792,373.711a2.27,2.27,0,0,1-1.276-.4,259.686,259.686,0,0,1-41.9-37.524c-27.6-30.774-42.187-63.169-42.187-93.687,0-51.079,36.474-94.623,81.306-97.068,23.059-1.314,45.565,8.371,62.179,26.759,17.459,19.28,27.314,45.888,27.291,73.685,0,29.144-14.6,60.523-42.228,90.748a268.624,268.624,0,0,1-41.909,37.083A2.281,2.281,0,0,1,626.792,373.711Zm.018-223.025q-1.914,0-3.837.1c-20.133,1.1-39.223,11.135-53.751,28.256a97.4,97.4,0,0,0-22.772,63.059c0,20.148,7.042,52.027,40.591,89.469a258.916,258.916,0,0,0,39.754,35.881c10.384-7.418,80.391-59.772,80.391-121.974.025-26.223-9.268-51.325-25.735-69.517-14.67-16.229-34.258-25.292-54.64-25.278Z" transform="translate(-61.638)" fill="#363a5a"/>
  </g>
</svg>
